<?xml version="1.0" encoding="UTF-8"?>
<svg width="24px" height="24px" viewBox="0 0 24 24" version="1.1" xmlns="http://www.w3.org/2000/svg">
    <path d="M17.0825 12.0574C17.0498 9.30523 19.3412 7.90796 19.4367 7.84883C18.1925 6.09418 16.2579 5.82014 15.5791 5.79804C13.9673 5.62804 12.4082 6.72671 11.5897 6.72671C10.7492 6.72671 9.47334 5.82456 8.10548 5.85108C6.31945 5.87671 4.66751 6.87894 3.76361 8.45485C1.88611 11.6758 3.29291 16.4326 5.10125 19.1326C6.01147 20.4539 7.07716 21.9291 8.48485 21.8803C9.85893 21.8273 10.3838 21.0158 12.0116 21.0158C13.6174 21.0158 14.1147 21.8803 15.5496 21.8494C16.9991 21.8273 17.9392 20.5193 18.8198 19.1856C19.8961 17.6529 20.3341 16.1529 20.3558 16.0794C20.3208 16.0684 17.1197 14.8847 17.0825 12.0574Z" fill="black"/>
    <path d="M14.6359 4.21787C15.3889 3.30844 15.9147 2.05259 15.7715 0.775391C14.6727 0.819573 13.3328 1.49486 12.5471 2.37685C11.8457 3.15809 11.2171 4.46107 11.3824 5.69372C12.6087 5.78107 13.8534 5.14286 14.6359 4.21787Z" fill="black"/>
</svg>
