<svg width="86" height="28" viewBox="0 0 86 28" fill="none" xmlns="http://www.w3.org/2000/svg">
<path d="M9.36 27.621C6.624 27.621 4.38 26.733 2.628 24.957C0.876 23.157 0 21.033 0 18.585C0 15.873 0.888 13.713 2.664 12.105C4.44 10.473 6.6 9.645 9.144 9.621C11.28 9.597 13.092 10.089 14.58 11.097C16.068 12.081 16.812 13.365 16.812 14.949C16.812 15.549 16.596 16.053 16.164 16.461C15.756 16.869 15.096 17.061 14.184 17.037C13.368 16.989 12.66 16.665 12.06 16.065C11.484 15.465 11.064 14.817 10.8 14.121C10.536 13.425 10.176 12.801 9.72 12.249C9.264 11.673 8.748 11.385 8.172 11.385C7.428 11.409 6.816 11.805 6.336 12.573C5.88 13.341 5.652 14.289 5.652 15.417C5.652 17.769 6.18 19.653 7.236 21.069C8.316 22.485 9.744 23.193 11.52 23.193C13.128 23.193 14.46 22.497 15.516 21.105C15.756 20.817 16.044 20.721 16.38 20.817C16.716 20.889 16.884 21.117 16.884 21.501C16.836 23.181 16.152 24.621 14.832 25.821C13.512 27.021 11.688 27.621 9.36 27.621Z" fill="#2C2A46"/>
<path d="M18.1812 27.261C17.6292 27.261 17.3533 27.033 17.3533 26.577V26.433C17.3533 26.145 17.5813 25.713 18.0373 25.137C18.5173 24.537 18.7572 23.937 18.7572 23.337V6.885C18.7572 6.261 18.5173 5.661 18.0373 5.085C17.5813 4.485 17.3533 4.065 17.3533 3.825V3.681C17.3533 3.417 17.6173 3.141 18.1453 2.853L23.5812 0.189C24.0852 -0.0269997 24.4813 -0.0389995 24.7693 0.153001C25.0813 0.321 25.2372 0.585 25.2372 0.945001V23.337C25.2372 23.937 25.5013 24.537 26.0293 25.137C26.5573 25.713 26.8213 26.145 26.8213 26.433V26.577C26.8213 27.033 26.5333 27.261 25.9573 27.261H18.1812Z" fill="#2C2A46"/>
<path d="M44.7917 23.301C44.7917 23.949 44.8637 24.441 45.0077 24.777C45.1757 25.113 45.3557 25.305 45.5477 25.353C45.7637 25.377 45.9437 25.461 46.0877 25.605C46.2557 25.749 46.3397 25.977 46.3397 26.289C46.3397 26.745 46.0277 27.057 45.4037 27.225C44.8037 27.393 43.8797 27.477 42.6317 27.477C41.5037 27.477 40.6757 27.321 40.1477 27.009C39.6437 26.697 39.3437 26.157 39.2477 25.389C38.2877 26.877 36.5957 27.621 34.1717 27.621C32.2517 27.621 30.6437 26.997 29.3477 25.749C28.0757 24.477 27.4397 22.737 27.4397 20.529V14.517C27.4397 13.893 27.1997 13.293 26.7197 12.717C26.2397 12.141 25.9997 11.733 25.9997 11.493V11.349C25.9997 10.869 26.2757 10.593 26.8277 10.521L32.1917 9.801C33.3197 9.657 33.8837 9.897 33.8837 10.521L33.7757 21.177C33.7517 22.617 33.9197 23.661 34.2797 24.309C34.6637 24.933 35.2637 25.245 36.0797 25.245C36.7517 25.245 37.3157 24.921 37.7717 24.273C38.2277 23.601 38.4557 22.725 38.4557 21.645V14.517C38.4557 13.893 38.2157 13.293 37.7357 12.717C37.2557 12.141 37.0157 11.733 37.0157 11.493V11.349C37.0157 10.869 37.2917 10.593 37.8437 10.521L43.2077 9.801C44.2637 9.657 44.7917 9.897 44.7917 10.521V23.301Z" fill="#2C2A46"/>
<path d="M57.217 9.621C59.449 9.621 61.417 10.389 63.121 11.925C64.849 13.437 65.713 15.561 65.713 18.297C65.713 21.057 64.873 23.301 63.193 25.029C61.537 26.757 59.545 27.621 57.217 27.621C55.441 27.621 53.989 27.093 52.861 26.037V26.361C52.861 26.985 52.549 27.297 51.925 27.297L46.489 27.261C45.937 27.261 45.661 27.033 45.661 26.577V26.433C45.661 26.145 45.901 25.713 46.381 25.137C46.861 24.537 47.101 23.925 47.101 23.301V6.921C47.101 6.297 46.801 5.721 46.201 5.193C45.625 4.641 45.337 4.221 45.337 3.933V3.789C45.337 3.405 45.661 3.069 46.309 2.781L51.853 0.225C52.309 -0.0149998 52.705 -0.0629999 53.041 0.0809997C53.377 0.225001 53.545 0.549001 53.545 1.053V10.701C54.481 9.981 55.705 9.621 57.217 9.621ZM56.641 25.857C58.465 25.857 59.377 24.345 59.377 21.321C59.377 19.881 59.257 18.441 59.017 17.001C58.801 15.561 58.393 14.265 57.793 13.113C57.217 11.961 56.521 11.385 55.705 11.385C55.057 11.385 54.529 11.673 54.121 12.249C53.737 12.801 53.545 13.569 53.545 14.553V21.537C53.545 22.641 53.857 23.637 54.481 24.525C55.129 25.413 55.849 25.857 56.641 25.857Z" fill="#2C2A46"/>
<path d="M76.7326 9.621C78.9646 9.621 80.9326 10.389 82.6366 11.925C84.3646 13.437 85.2286 15.561 85.2286 18.297C85.2286 21.057 84.3886 23.301 82.7086 25.029C81.0526 26.757 79.0606 27.621 76.7326 27.621C74.9566 27.621 73.5046 27.093 72.3766 26.037V26.361C72.3766 26.985 72.0646 27.297 71.4406 27.297L66.0046 27.261C65.4526 27.261 65.1766 27.033 65.1766 26.577V26.433C65.1766 26.145 65.4166 25.713 65.8966 25.137C66.3766 24.537 66.6166 23.925 66.6166 23.301V6.921C66.6166 6.297 66.3166 5.721 65.7166 5.193C65.1406 4.641 64.8526 4.221 64.8526 3.933V3.789C64.8526 3.405 65.1766 3.069 65.8246 2.781L71.3686 0.225C71.8246 -0.0149998 72.2206 -0.0629999 72.5566 0.0809997C72.8926 0.225001 73.0606 0.549001 73.0606 1.053V10.701C73.9966 9.981 75.2206 9.621 76.7326 9.621ZM76.1566 25.857C77.9806 25.857 78.8926 24.345 78.8926 21.321C78.8926 19.881 78.7726 18.441 78.5326 17.001C78.3166 15.561 77.9086 14.265 77.3086 13.113C76.7326 11.961 76.0366 11.385 75.2206 11.385C74.5726 11.385 74.0446 11.673 73.6366 12.249C73.2526 12.801 73.0606 13.569 73.0606 14.553V21.537C73.0606 22.641 73.3726 23.637 73.9966 24.525C74.6446 25.413 75.3646 25.857 76.1566 25.857Z" fill="#2C2A46"/>
</svg>
